<svg width="1440" height="240" xmlns="http://www.w3.org/2000/svg">

 <g>
  <title>Layer 1</title>
  <g id="svg_1" fill-rule="evenodd" fill="#4B3F6B">
   <path id="svg_2" d="m830,-63.482c0,82.833 24.36,142.16 114.732,180.482c90.371,38.321 177.686,3.352 265.277,23.4c87.59,20.048 87.59,149.195 170.077,228.671c82.486,79.476 256.405,98.781 397.82,18.15c141.415,-80.632 205.52,-268.896 163.267,-379.902c-42.254,-111.006 -123.23,-212.319 -513.937,-212.319s-597.236,58.686 -597.236,141.518zm-1093.351,634.391c29.685,77.331 73.689,123.988 171.79,127.377c98.102,3.39 167.085,-60.547 256.043,-73.22c88.958,-12.674 135.24,107.895 240.73,152.532c105.488,44.638 274.775,0.333 377.9,-125.622c103.128,-125.955 95.508,-324.686 16.28,-413.178c-79.23,-88.491 -191.135,-154.055 -555.892,-14.038c-364.757,140.017 -536.537,268.818 -506.852,346.149l0.001,0zm-250.649,-948.391c0,82.833 24.36,142.16 114.732,180.482c90.371,38.321 177.686,3.352 265.277,23.4c87.59,20.048 87.59,149.195 170.077,228.671c82.486,79.476 256.405,98.781 397.82,18.15c141.415,-80.632 205.52,-268.896 163.267,-379.902c-42.254,-111.006 -123.23,-212.319 -513.937,-212.319s-597.236,58.686 -597.236,141.518z"/>
  </g>
 </g>
</svg>